# Blender v2.82 (sub 7) OBJ File: 'crocus-flower.blend'
# www.blender.org
o Plane.005
v 1.422037 0.090600 1.325769
v 1.081170 1.096176 0.945902
v 0.979538 -0.874578 0.945902
v 0.543754 0.135893 0.070240
v 1.136008 0.105351 2.744712
v 0.933039 1.103815 2.288013
v 0.831407 -0.866938 2.288013
v 0.486583 -0.359213 1.007099
v 0.858287 0.336277 0.715847
v -0.256273 -0.623856 0.715847
v 0.075959 0.117456 0.053157
v 0.744914 -0.659093 2.023002
v 1.184821 -0.042775 1.677377
v 0.070261 -1.002909 1.677377
v -0.956679 0.402374 1.057016
v -0.908120 -0.476237 0.758948
v -0.369474 1.057739 0.758948
v -0.229726 0.147109 0.056357
v -0.766906 0.335736 2.209206
v -0.822879 -0.506168 1.842771
v -0.284234 1.027808 1.842771
v -0.069201 1.546854 1.375336
v -1.063813 1.051749 1.028821
v 0.970191 1.154366 1.028821
v -0.016751 0.507225 0.184046
v -0.012442 1.248054 2.708314
v -1.013767 0.885991 2.267724
v 1.020238 0.988607 2.267724
v -1.586638 0.162531 1.389708
v -1.219661 -0.784824 0.976085
v -1.287715 1.133510 0.976085
v -0.888329 0.187304 0.072481
v -1.182691 0.193378 2.758438
v -0.958112 -0.759029 2.287167
v -1.026166 1.159305 2.287167
v -0.101322 -1.291080 1.801509
v 1.088483 -1.029243 1.245975
v -1.250213 -0.885808 1.245975
v -0.062989 -0.666066 0.092522
v -0.090008 -0.836586 2.716792
v 0.807040 -0.746379 2.270495
v -0.957543 -0.638156 2.270495
vn 0.9896 -0.0510 -0.1343
vn 0.8180 -0.0422 -0.5737
vn 0.9510 0.2035 -0.2326
vn 0.9379 0.3150 0.1449
vn 0.9865 -0.0509 0.1555
vn 0.9005 -0.4098 0.1449
vn 0.9251 -0.3002 -0.2326
vn 0.5789 -0.6720 -0.4617
vn 0.5448 -0.6325 -0.5506
vn 0.6466 -0.5878 -0.4860
vn 0.6728 -0.6155 -0.4103
vn 0.5945 -0.6901 -0.4128
vn 0.5091 -0.7566 -0.4103
vn 0.4856 -0.7266 -0.4860
vn -0.9300 0.3265 -0.1685
vn -0.7476 0.2625 -0.6101
vn -0.9619 0.0659 -0.2655
vn -0.9919 -0.0421 0.1202
vn -0.9356 0.3285 0.1292
vn -0.7478 0.6530 0.1202
vn -0.7919 0.5499 -0.2655
vn -0.0565 0.9842 -0.1679
vn -0.0379 0.7520 -0.6580
vn -0.3297 0.9062 -0.2649
vn -0.4465 0.8771 0.1769
vn -0.0434 0.9828 0.1793
vn 0.3489 0.9246 0.1525
vn 0.2349 0.9347 -0.2667
vn -0.9988 -0.0378 -0.0316
vn -0.8828 -0.0313 -0.4686
vn -0.9513 -0.2781 -0.1328
vn -0.8936 -0.3854 0.2300
vn -0.9698 -0.0324 0.2415
vn -0.9216 0.3182 0.2221
vn -0.9687 0.2093 -0.1334
vn -0.0582 -0.9909 0.1210
vn -0.0575 -0.9372 -0.3440
vn 0.1811 -0.9828 -0.0357
vn 0.3265 -0.8675 0.3752
vn -0.0598 -0.9144 0.4004
vn -0.4291 -0.8257 0.3661
vn -0.3001 -0.9532 -0.0366
s 1
f 1//1 4//2 2//3
f 2//3 6//4 5//5 1//1
f 1//1 5//5 7//6 3//7
f 4//2 1//1 3//7
f 8//8 11//9 9//10
f 9//10 13//11 12//12 8//8
f 8//8 12//12 14//13 10//14
f 11//9 8//8 10//14
f 15//15 18//16 16//17
f 16//17 20//18 19//19 15//15
f 15//15 19//19 21//20 17//21
f 18//16 15//15 17//21
f 22//22 25//23 23//24
f 23//24 27//25 26//26 22//22
f 22//22 26//26 28//27 24//28
f 25//23 22//22 24//28
f 29//29 32//30 30//31
f 30//31 34//32 33//33 29//29
f 29//29 33//33 35//34 31//35
f 32//30 29//29 31//35
f 36//36 39//37 37//38
f 37//38 41//39 40//40 36//36
f 36//36 40//40 42//41 38//42
f 39//37 36//36 38//42
